<?xml version="1.0" encoding="utf-8"?>
<!-- Generator: Adobe Illustrator 26.0.2, SVG Export Plug-In . SVG Version: 6.00 Build 0)  -->
<svg version="1.1" id="Layer_1" xmlns="http://www.w3.org/2000/svg" xmlns:xlink="http://www.w3.org/1999/xlink" x="0px" y="0px"
	 viewBox="100 120 412 552" xml:space="preserve">
<style type="text/css">

	.st1{fill:#1A3452;}
	.st2{fill:#F15A29;}
	.st3{fill:#F0B5B7;}
	.st4{fill:#F1BBBC;}
	.st5{fill:#B9B9B8;}
	.st6{fill:#F0BABB;}
	.st7{fill:#B6B6B5;}
	.st8{fill:#E47D7F;}
	.st9{fill:#D0D0CF;}
	.st10{fill:#DE5C60;}
	.st11{fill:#6F706E;}
	.st12{fill:#E16F6F;}
	.st13{fill:#EEACAE;}
	.st14{fill:#BEBEBD;}
	.st15{fill:#D3D3D2;}
	.st16{fill:#F0B6B8;}
	.st17{fill:#B4B4B3;}
	.st18{fill:#EEACAD;}
	.st19{fill:#EEAEB0;}
	.st20{fill:#80807E;}
	.st21{fill:#EDA9AA;}
	.st22{fill:#EFB3B5;}
	.st23{fill:#ADADAC;}
	.st24{fill:#E06468;}
	.st25{fill:#F1C0BF;}
	.st26{fill:#E26B6E;}
	.st27{fill:#E16769;}
	.st28{fill:#ECA6A8;}
	.st29{fill:#ECA4A5;}
	.st30{fill:#E0686B;}
	.st31{fill:#EEAFB1;}
	.st32{fill:#EFAEB0;}
	.st33{fill:#C0C0BE;}
	.st34{fill:#CCCCCB;}
	.st35{fill:#EDA8AA;}
	.st36{fill:#EFB1B4;}
	.st37{fill:#E0676A;}
	.st38{fill:#8F908E;}
	.st39{fill:#F1BEBF;}
	.st40{fill:#C4C5C4;}
	.st41{fill:#838482;}
	.st42{fill:#AFAFAE;}
	.st43{fill:#E47678;}
	.st44{fill:#B9B8B7;}
	.st45{fill:#E68585;}
	.st46{fill:#B8B8B6;}
	.st47{fill:#DD5359;}
	.st48{fill:#EDABAC;}
	.st49{fill:#E37174;}
	.st50{fill:#888886;}
	.st51{fill:#EDA7A9;}
	.st52{fill:#E37277;}
	.st53{fill:#727370;}
	.st54{fill:#E57F80;}
	.st55{fill:#C3C3C2;}
	.st56{fill:#EDA9AB;}
	.st57{fill:#E47C7E;}
	.st58{fill:#878886;}
	.st59{fill:#E26F72;}
	.st60{fill:#E47B7B;}
	.st61{fill:#5F615E;}
	.st62{fill:#EA969A;}
	.st63{fill:#E26C6F;}
	.st64{fill:#757775;}
	.st65{fill:#6E706D;}
	.st66{fill:#727371;}
	.st67{fill:#E06266;}
	.st68{fill:#DE565B;}
	.st69{fill:#DE595E;}
</style>

<path class="st1" d="M471.6,382.3c0.1,0.8,0.7,1.4,1.2,1.9c2.8,2.9,4.5,6.5,6.6,9.9c0.4,0.7,1,1.4,1.2,2.3c2.5,3.3,4,7.1,5.5,10.8
	c3.7,9.1,4.2,18.7,3.1,28.3c-0.2,2-0.8,4-1.5,6c-1.2,3.2-2.2,6.4-3.8,9.4c-2.3,4.3-5.3,8-8.5,11.5c-3.1,3.5-6.7,6.5-10.5,9.1
	c-2.4,1.7-4.9,3.5-8,4.4c-0.7-1-0.3-2.2-0.2-3.2c0.7-3.8,0.5-7.6,0.1-11.5c-0.4-3.6-1.6-6.9-3.1-10.1c-0.4-1.1-0.5-2.3-1.4-3.2
	c-0.5-0.5-0.4-1.3-0.8-1.9c-1.8-3.7-4.2-7-6.5-10.4c-2.3-3.6-5-6.8-7.6-10.2c-1.2-1.6-2.8-3.1-4.2-4.7c-1.3-1.5-2.7-2.8-4.1-4.2
	c-1.6-1.6-3.3-3.2-5-4.7c-2.3-2-4.6-4.1-6.9-6.2c-3.4-3.1-7-6-10.3-9.2c-1.6-1.5-3.2-3-4.8-4.4c-1.4-1.3-2.7-2.9-4.4-3.9
	c-1.5-0.8-2.6-2.2-3.7-3.4c-5-4.9-10.5-9.2-15.5-14.1c-1.4-1.3-3-2.6-4.4-3.9c-1.6-1.4-3.1-2.9-4.7-4.2c-1.6-1.4-3-3.1-4.8-4.3
	c-1.3-0.9-2.4-2.2-3.5-3.3c-4.4-4.3-9-8.3-13.2-12.8c-3.5-3.7-7.2-7.1-10.6-10.9c-1.3-1.5-2.7-3-3.9-4.6c-1.1-1.5-2.5-3-3.8-4.5
	c-1.8-2.2-3.7-4.3-5.1-6.7c-1.1-1.8-2.4-3.4-3.6-5.1c-0.7-0.7-1.1-1.8-1.7-2.5c-0.6-0.9-0.4-2.2-1.2-3c-0.8-1-0.9-2.4-1.8-3.4
	c-0.4-2-1.3-3.8-2.2-5.6c-0.5-1.1-0.8-2.3-1.1-3.4c-0.1-2-1.2-3.8-1.2-5.8c-0.2-1.1-0.4-2.1-0.7-3.1c-1-6.1-1.3-12.1,0-18.2
	c0.1-0.7,0-1.4,0-2.1c0.8-2.8,1.2-5.6,2-8.4c0.1-0.3,0.2-0.6,0.3-0.9c0.6-0.6,0.5-1.5,0.9-2.2c1.5-3.9,2.9-8,5-11.6
	c1.4-2.5,2.8-5,4.5-7.4c2.3-3.3,4.9-6.3,7.5-9.3c3.2-3.7,6.8-6.9,10.3-10.2c0.4-0.4,0.9-0.4,1.4-0.2c0.9,1.5,0.6,3.2,0.6,4.8
	c-0.1,3.8-0.3,7.7,0.4,11.5c0.2,0.5,0.1,0.9,0.2,1.4c0.2,1.3,0.3,2.6,0.7,3.9c0.2,0.5,0,1.1,0.5,1.5c0.5,1,0.3,2,0.6,3
	c0,0.1,0,0.2,0,0.4c0.2,1.4,0.7,2.7,1.1,4c-0.1,0.9,0.5,1.5,0.7,2.3c0.3,0.8,0.9,1.5,1.1,2.4c0.1,1,0.4,1.9,0.9,2.8
	c1.7,3.3,3.2,6.8,5.2,10c0.3,0.6,0.3,1.3,0.8,1.8l0,0c0.8,0.9,1.5,2,2.1,3c1.1,2.3,2.8,4.2,4.3,6.2c1.5,2.1,3.1,4.2,4.8,6.2
	c1.7,2.1,3.4,4.2,5.1,6.3c1.3,1.6,3.2,2.8,4.1,4.8c0.2,0.4,0.7,0.6,1.1,1c0.7,0.7,1.4,1.5,1.9,2.4c2.1,1.5,3.7,3.6,5.6,5.5
	c3.5,3.5,7,6.9,10.5,10.3c1.7,1.6,3.3,3.2,5,4.8c1.4,1.3,2.8,2.7,4.2,4c1.5,1.4,3.1,2.9,4.6,4.2c1.7,1.5,3.1,3.1,4.9,4.5
	c1.4,1,2.6,2.3,3.9,3.5c3.1,2.9,6.3,5.6,9.4,8.6c2.9,2.8,5.8,5.5,8.8,8.1c1.5,1.3,2.9,2.8,4.4,4.1c1.5,1.3,3.1,2.6,4.4,4.2
	c1.4,1.7,3,3.1,4.8,4.4c1.3,0.9,2.4,2.2,3.4,3.4c1.3,1.5,2.9,2.6,4,4.2c1,1.4,2.5,2.6,3.8,3.9c3,3,5.8,6,8.3,9.4
	C470,380.2,470.9,381.1,471.6,382.3z"/>
<path class="st2" d="M306.5,334.2c1.7,2.3,3.5,4.5,5.5,6.6c1.2,1.3,2.3,2.6,3.4,4c2.2,2.6,4.6,5,7,7.5c2.5,2.7,5.3,5.3,7.9,7.9
	c2.6,2.6,5.3,5.1,7.9,7.6c1.6,1.6,3.7,2.9,4.9,4.9c0.2,0.3,0.6,0.4,0.9,0.5c0.8,0.3,1.3,1,1.8,1.7c1.1,1.4,2.7,2.3,4,3.6
	c1.2,1.2,2.4,2.5,3.7,3.6c1.4,0.7,2,2.4,3.5,3c3.4,3,6.8,6,10.2,9c1,0.5,2,1.1,2.6,2.2c1.8,1.1,3.1,2.8,4.6,4.1
	c1.7,1.5,3.5,3,5.2,4.6c3,2.9,6.4,5.5,9.5,8.4c2.6,2.4,5.2,4.7,7.8,7.2c2.5,2.4,4.9,4.8,7.4,7.1c2.4,2.2,4.4,4.7,6.6,7.1
	c1.2,1.6,2.7,2.8,3.9,4.3c2,1.9,3.6,4.2,5.1,6.4c2.4,3.5,5.2,6.6,7.2,10.4c1.1,2.1,2.5,4.3,4,6.2c1.5,2,2.3,4.3,3.4,6.5
	c0.4,0.5,0.3,1.3,0.9,1.7c0.1,0.4,0.2,0.9,0.4,1.3c1.3,3.6,2.5,7.2,3.2,11c0,2.5,0.1,4.9,0.6,7.4c0.6,3-0.4,5.9-0.5,8.9
	c-0.1,2.6-0.2,5.2-0.6,7.8c-0.5,3-1.3,5.9-2.6,8.7c-0.1,2.3-1.3,4.3-2.2,6.4c-0.6,0.6-0.5,1.5-0.9,2.2c0,1.1-0.8,1.9-1.3,2.8
	c-2.3,4.3-5,8.5-8.2,12.2c-1.5,1.8-3.1,3.6-4.6,5.4c-1.4,1.6-3,3-4.3,4.8c-1,1.3-2.4,2.3-3.5,3.4c-0.8,0.8-1.9,1.4-2.5,2.5
	c-0.6,1-1.6,0.7-2.5,0.6c-0.6-0.3-0.3-0.9-0.3-1.3c0-2.2,0-4.4,0-6.6c0-6-0.5-11.8-2.4-17.5c-0.3-0.8,0.1-1.6-0.4-2.3l0,0
	c-0.3-1.2-0.2-2.6-1-3.7c0-1-0.8-1.7-1-2.7c-0.4-1.1-0.9-2.3-1.1-3.4c-0.1-0.3-0.2-0.6-0.3-0.9c-0.8-1.7-1.9-3.3-2.6-5.1l0,0
	c-0.5-1-0.8-2-1.4-2.9c-0.7-1-1.3-2-1.6-3.1c0-0.2,0-0.5,0-0.7c-0.6-0.7-0.9-1.6-1.7-2.1c-0.3-0.3-0.5-0.8-0.8-1
	c-1.2-3.1-3.5-5.6-5.4-8.2c-2.4-3.2-4.7-6.4-7.4-9.3c-1.3-1.3-2.2-3-3.8-3.9c-0.4-0.9-1.2-1.4-1.7-2.2c-1.8-1.2-3.1-3-4.6-4.6
	c-4-4.1-8.1-8-12.1-11.9c-0.6-0.6-1.1-1.3-1.6-1.9c-0.6-0.4-1.1-0.9-1.7-1.3c-1.9-1.8-3.8-3.5-5.5-5.3c-1.5-1.6-3.1-3-4.7-4.5
	c-1.5-1.4-2.9-2.8-4.4-4.2c-1.5-1.3-3.2-2.5-4.4-4.1c-1-1.3-2.5-1.9-3.6-3.2c-1.4-1.6-3.2-2.9-4.8-4.3c-1-1.2-2.3-2-3.4-3.1
	c-3.6-3.4-7.2-6.7-10.7-10.1c-0.6-0.6-1.1-1.2-1.7-1.9c-0.9-0.6-1.7-1.5-2.5-2.2c-1.7-1.2-3.1-2.8-4.5-4.2c-1.6-1.6-3.2-3.1-4.8-4.7
	c-1.4-1.4-2.7-2.8-4.2-4.2c-1.6-1.5-3.4-3-4.7-4.8c-0.9-1.3-2.2-2.5-3.3-3.7c-2.4-2.5-4.4-5.1-6.5-7.8c-2.6-3.2-5.1-6.5-7.2-10.1
	c-2.4-4-5-7.9-6.8-12.2c-1.2-2.5-2.5-5.1-3.1-7.8c0-1.6-1.1-2.9-1.1-4.5c-0.2-1-0.4-2-0.7-3c-0.9-4.5-1.4-9-0.3-13.5
	c0.2-0.8,0.3-1.7,0.3-2.5c0.4-1,0.6-2,0.7-3c0.2-1.7,0.9-3.4,1.2-5c0.4-2,1.7-3.5,2.4-5.4c1-2.6,2.7-4.7,4.1-7
	c0.6-0.7,1.1-1.4,1.7-2.1c1-2,2.7-3.6,4.3-5.1c1.4-1.4,2.7-3,4.4-4.1c1.4-0.9,2.5-2.4,4.1-3.3c0.3-0.6,0.9-0.9,1.3-1.3
	c1.7-1.3,3.5-2.3,5-3.7c0.7-0.6,1.7-0.9,2.7-0.2c0.4,1.9,0.1,3.8,0.2,5.7c0.1,2.9,0.9,5.6,1.3,8.4c0.2,0.5,0.2,1.1,0.4,1.6
	c-0.1,1,0.4,2,0.7,2.9c0.2,0.3,0.1,0.8,0.4,1.1l0,0c0.3,1.5,1,2.8,1.3,4.3l0,0c0.4,1.2,1.3,2.2,1.7,3.4l0,0c0.7,2,1.9,3.8,3,5.6
	c0.2,1,0.7,1.8,1.4,2.5c0.8,0.8,1.4,1.8,1.6,2.9C304.8,332.1,305.4,333.3,306.5,334.2z"/>
<path class="st2" d="M326.5,483.7c1.4,1.4,2.7,3,3.9,4.6c1.2,1.6,2.6,3,3.9,4.4c4.6,4.8,8.9,10,13.9,14.5c2.6,2.3,5,4.7,7.4,7.2
	c2.2,2.2,3.7,4.9,5.4,7.5c1.9,2.8,3.3,5.9,5,8.8c0.4,0.7,0.7,1.4,0.8,2.2c0.3,0.7,0.2,1.6,0.9,2.2l0,0c0.8,3.1,1.3,6.2,1,9.4
	c-0.1,0.9-0.6,1.8-0.6,2.7c0,1.6-0.8,3-1.1,4.5c-0.2,2.9-2.3,4.9-3.2,7.4c-2.4,3.4-4.5,7-7.6,9.9c-1.5,0.6-0.9-1-1.4-1.3
	c0-0.3,0-0.5,0-0.8c-0.4-1.6,0-3.3-0.8-4.8l0,0c-0.5-1.1-0.1-2.4-0.9-3.4l0,0c0-1.7-1-3-1.3-4.6c-0.2-1.1-0.8-2.1-1.2-3.1l0,0
	c-0.8-1.2-1.2-2.6-1.7-3.9c-1.7-3.4-4.1-6.4-6.4-9.4c-0.7-0.8-1.4-1.8-2.2-2.5c-0.7-1.6-2.1-2.7-3.3-3.9c-0.5-0.8-1.1-1.5-1.8-2.1
	c-1.5-1.4-2.7-2.9-4.2-4.3c-1.7-1.6-3.2-3.4-4.9-4.9c-1.3-1.1-2.4-2.5-3.5-3.8c-2.2-2.7-4.7-5.2-7.1-7.6c-3.9-4-7.5-8.3-11.1-12.6
	c-2-2.4-4.3-4.7-5.5-7.7c-2.3-5.5-2.9-11-1.3-16.8c0.8-3.1,2.6-5.7,3.8-8.6c0.9-1,1.8-2,2.7-2.9c0.9-0.9,1.6-2.1,2.9-2.6
	c1.1-0.7,2.2-1.3,3.2-2.1c0.9-0.7,1.7-0.8,2.9-0.5c0.7,2.5-0.4,5.3,0.9,7.8c0.5,2.1,1.2,4.1,2,6c0.5,2.1,2,3.7,3,5.6
	c1.7,2.7,3.6,5.1,5.9,7.3C325.2,482.1,325.9,482.9,326.5,483.7z"/>
<path class="st1" d="M381.7,212.6c-0.1-1,0.8-1.7,1.2-2.4c2.1-3.9,5-7.2,8.3-10.1c1.1-0.9,2.5-1.7,3.7-2.5c1.3,0.6,1.5,1.6,1.5,2.7
	c0,2.1-0.1,4.3,0.3,6.4c0,2.8,1.2,5.2,2.1,7.7c0.8,2.8,2.6,5.1,4.1,7.5c1.2,1.9,2.6,3.7,4.2,5.4c2.4,2.5,4.6,5.2,7.1,7.7
	c5,5.1,10.1,10.2,15,15.5c2.4,2.6,4.9,5,7.2,7.8c1.3,1.6,2.7,3.2,4.1,4.7c1.5,1.7,2.9,3.6,4.1,5.5c1.8,2.8,3.4,5.6,5,8.4
	c0.5,0.8,0.8,1.6,1,2.5c0.7,5.3,1.4,10.6,0,15.9c-0.1,0.7-0.3,1.4-0.4,2.1c-0.6,0.4-0.5,1.2-0.8,1.8c-1.1,2.2-1.9,4.5-3.6,6.3
	c-0.5,0.5-1,1-1.1,1.8c-1.4,1.9-3.3,3.5-5,5.1c-1.1,1.1-1.9,0.8-2.5-0.7c-0.4-1.1-0.5-2.2-0.4-3.3c0.2-2.2-0.8-4.2-1.1-6.3
	c-0.7-2.4-1.8-4.8-2.6-7.1c-0.9-2.7-2.5-5-3.7-7.5c-0.8-1.6-2-2.9-3-4.3c-0.8-0.8-1.5-1.7-2.2-2.5c-1.6-2.5-3.8-4.5-5.8-6.6
	c-1.3-1.3-2.7-2.6-3.9-4.1c-1.2-1.6-2.8-2.9-4.2-4.4c-1.6-1.6-3.1-3.3-4.8-4.9c-1.6-1.5-2.8-3.3-4.6-4.6c-1.2-0.9-1.9-2.2-3-3.2
	c-1.4-1.4-3-2.7-4.2-4.4c-1.1-1.5-2.5-2.6-3.7-4c-2.9-3.4-5.2-7.1-7.7-10.8c-0.3-0.5-0.5-1-0.7-1.6c-0.7-1.6-1.1-3.3-1.8-4.9
	c0-1.4-0.7-2.6-0.9-3.9c-0.3-2.5,0.4-4.8,1-7.2C380.9,215.3,381.4,214,381.7,212.6z"/>
<path class="st3" d="M435.8,515.4c-0.6-1.1,0.5-1.8,0.8-2.7c1.7-4.8,2.1-9.8,2.1-14.8c0-1.2,0.2-2.4,0.3-3.6c0.5-4-0.8-7.9-0.5-11.8
	c-0.2-0.3-0.1-0.5,0.2-0.7c0.8,5.8,1.9,11.6,0.5,17.5c-0.5,2.1-0.4,4.4-0.5,6.6c-0.2,3.3-1.5,6.2-2.2,9.2
	C436.4,515.6,436.2,515.6,435.8,515.4z"/>
<path class="st4" d="M261.9,324.8c0.3,1.8-1,3.3-0.9,5.1c-0.3,0.9-0.2,1.9-0.7,2.7c0.1,2.5-0.8,4.9-0.8,7.4c0,3.1,0.5,6.2,0.8,9.3
	c0.5,0.8,0.4,1.8,0.8,2.7c0,1.6,1.2,2.9,1,4.5c0.2,0.3,0.1,0.5-0.1,0.6c-1.3-3.3-2.1-6.7-2.7-10.2c-0.6-3.6-0.5-7.2,0-10.8
	c0.4-2.8,1-5.6,1.5-8.3C260.9,326.7,261.2,325.7,261.9,324.8z"/>
<path class="st5" d="M311.2,262.8c0.2,3.5-0.7,6.9-0.8,10.4c-0.1,3.6,0.7,7,0.8,10.6c0.5,0.8,0.5,1.8,0.7,2.7
	c-0.2,2.1,1.4,3.8,1,5.9c-0.9-2.9-1.7-5.8-2.3-8.9c-0.8-4.5-0.7-8.9-0.7-13.4c0.3-1.6,0.2-3.2,0.8-4.8c0-0.8,0.1-1.7,0.1-2.5
	C310.9,262.6,311,262.6,311.2,262.8z"/>
<path class="st6" d="M402.7,527.8c2.1,5.6,2.9,11.5,3,17.5c0.1,3.4-0.1,6.8,0.1,10.3c-0.9-0.4-0.5-1.2-0.6-1.9c0-2.1-0.2-4.1,0-6.2
	c0.4-4.1-1.1-8.1-1-12.2c0-1.3-0.5-2.6-1.1-3.8C402.7,530.3,402.6,529,402.7,527.8z"/>
<path class="st7" d="M450.7,295.3c-0.3-1.6,0.2-3.3,0.4-4.9c0.5-3.7-0.8-7.3-0.4-11c1,4.5,1.9,8.9,0.7,13.5
	C451.2,293.7,451.4,294.7,450.7,295.3z"/>
<path class="st5" d="M343.7,230.6c0-0.4-0.1-0.8-0.1-1.2c-0.9-5.3-1-10.6,0-15.8c0.9,1.2,0.5,2.6,0.3,3.9c-0.4,2.8-0.4,5.6,0,8.5
	c0.2,1.5,0.1,3.1,0.2,4.7c-0.1,0.1-0.2,0.1-0.2,0.2C343.9,230.7,343.8,230.6,343.7,230.6z"/>
<path class="st8" d="M368.4,544.9c-0.1-2.5,0.5-5.1-0.7-7.5c-0.3-0.6,0-1.5,0-2.3c1.7,3.9,1.5,8,0.9,12c-0.2,1.6-0.8,3.1-1.4,4.6
	c-0.1,0.2-0.2,0.3-0.3,0.1c-0.2-1.7,1.3-3,0.9-4.7C367.9,546.3,368.2,545.6,368.4,544.9z"/>
<path class="st9" d="M436.9,308.6c0.1,1.5,0.5,2.8,1.2,4.4c2.7-1.5,4.3-4,6.5-5.7c0.1,0.6-0.2,1-0.6,1.5c-1.4,1.3-2.7,2.6-4.1,3.9
	c-1.3,1.1-2.2,0.9-2.9-0.6c-0.6-1.1-0.5-2.3-0.4-3.5C436.8,308.4,436.9,308.4,436.9,308.6z"/>
<path class="st10" d="M313.7,462.3c-1-0.3-0.9-1.1-0.9-1.9c0-1.8,0-3.7,0-5.5c-1.1-0.5-1.8-0.2-2.6,0.4c-1,0.7-1.9,1.9-3.4,1.9
	c1.3-1.4,2.7-2.6,4.6-3.1c1.1-0.3,1.8,0,1.8,1.3C313.2,457.6,313.5,460,313.7,462.3z"/>
<path class="st11" d="M343.6,213.5c-0.6,5.3-0.7,10.6,0,15.8c-0.8-0.7-0.8-1.7-0.8-2.7c0-4.6,0-9.2,0-13.9
	C343.3,212.7,343.2,213.4,343.6,213.5z"/>
<path class="st12" d="M293.1,307.3c-0.4-2.3-1-4.6-1.2-7c-0.2-2.5,0-5.1,0-7.6c0.5,0.3,0.5,0.9,0.4,1.3c-0.2,3.6,0.5,7.1,0.9,10.7
	C293.4,305.6,293.9,306.4,293.1,307.3z"/>
<path class="st13" d="M438.8,481.8c-0.1,0.2-0.1,0.5-0.2,0.7c-0.7-3.1-1.5-6.1-2.7-9c-0.2-0.5-0.2-1.2-0.2-1.9
	c1.2,1.1,1.3,2.8,1.8,4.2C438.1,477.8,438.9,479.7,438.8,481.8z"/>
<path class="st14" d="M380.4,216.5c-0.9,2.3-1.3,4.7-1.2,7.2c0.2,0.6,0.3,1.2-0.1,1.8c-0.7-2.3-0.8-4.7,0-7c0.3-0.9-0.2-2.4,1.2-2.9
	C380.7,215.9,380.7,216.2,380.4,216.5z"/>
<path class="st15" d="M311.2,262.8c-0.2,0-0.3,0-0.5,0c0.7-2.7,0.9-5.6,2.2-8.1C312.8,257.5,312,260.1,311.2,262.8z"/>
<path class="st16" d="M366.8,551.7c0.1,0,0.2,0,0.3-0.1c-0.1,2.9-1.8,5.1-3.4,7.3c-0.1-1.1,0.6-2.1,1.1-2.9
	C365.8,554.8,366.4,553.3,366.8,551.7z"/>
<path class="st13" d="M261.8,357c0-0.2,0.1-0.4,0.1-0.6c0.7,2.2,1.4,4.4,2.6,6.4c0.3,0.4,0.3,0.9,0.3,1.4
	C263.3,362.1,262,359.8,261.8,357z"/>
<path class="st17" d="M398.9,214.4c-1.5-2.4-2.4-4.9-2.1-7.7C397.1,209.3,398.6,211.7,398.9,214.4z"/>
<path class="st18" d="M318.8,473.8c-1.3-1.7-3.1-3.1-3-5.6c1.2,1.3,1.4,3.2,2.9,4.3C318.9,472.8,318.8,473.4,318.8,473.8z"/>
<path class="st19" d="M396.7,511.9c1,1.6,2.2,3.2,2.6,5.1c-1.3-0.8-1.3-2.5-2.4-3.5C396.6,513.2,396.6,512.5,396.7,511.9z"/>
<path class="st20" d="M436.9,308.6c-0.1,0-0.2-0.1-0.3-0.1c0.1-2.2-1.2-4.2-0.9-6.4C436.6,304.2,437.3,306.3,436.9,308.6z"/>
<path class="st21" d="M300.8,325.7c-1.5-1.6-2.8-3.3-3-5.6C298.9,322,300.2,323.7,300.8,325.7z"/>
<path class="st22" d="M414.7,439.1c-1.6-1.1-2.9-2.5-3.9-4.3C412.4,436,413.9,437.3,414.7,439.1z"/>
<path class="st23" d="M380,227.6c0.9,1.5,1.5,3,1.6,4.7c-1.1-1-1.2-2.5-1.7-3.8C379.8,228.3,379.8,227.9,380,227.6z"/>
<path class="st24" d="M353.9,562c0.8,0.3,0.9,0.9,0.9,1.7c0,1,0,2.1-0.1,3.1C354.4,565.2,353.7,563.7,353.9,562z"/>
<path class="st25" d="M293.1,307.3c0-0.9,0-1.7,0-2.6c1.2,1.1,0.8,2.6,0.8,3.9c-0.2,0.1-0.3,0.1-0.3-0.1
	C293.4,308.1,293.1,307.8,293.1,307.3z"/>
<path class="st26" d="M351.9,553.8c0.5,1.6,1.6,3,1.2,4.8c-0.4-1.3-1.1-2.5-1.3-3.9C351.6,554.4,351.5,554.1,351.9,553.8z"/>
<path class="st27" d="M306.5,334.2c-1.5-0.5-2.1-1.7-2.6-3.1C305.2,331.8,305.8,333,306.5,334.2z"/>
<path class="st28" d="M348.8,547c0.9,1.2,1.4,2.5,1.7,3.9C349.3,549.8,348.7,548.6,348.8,547z"/>
<path class="st29" d="M321.8,430.1c1.4,0.7,2.6,1.7,3.4,3.1C323.9,432.4,322.6,431.5,321.8,430.1z"/>
<path class="st30" d="M357,385.1c-1.9-0.2-2.4-2-3.5-3C355.2,382.5,355.8,384.1,357,385.1z"/>
<path class="st17" d="M380,227.6c0,0.3,0,0.6,0,0.9c-0.7-0.9-0.4-2.1-0.8-3.1c0-0.6,0-1.2,0.1-1.8C380,224.9,379.9,226.3,380,227.6z
	"/>
<path class="st5" d="M344.9,235.8c-0.4-0.4-0.3-0.9-0.4-1.3c-0.4-1.2-0.8-2.4-0.5-3.8c0.1-0.1,0.1-0.1,0.2-0.2
	c0.8,1.5,0.8,3.1,0.9,4.7C345.2,235.5,345.1,235.7,344.9,235.8z"/>
<path class="st31" d="M402,523.9c0.9,1.2,0.8,2.5,0.8,3.9c-0.4-1.3-0.8-2.6-1.2-3.9C401.7,523.7,401.8,523.7,402,523.9z"/>
<path class="st32" d="M393.7,505.9c0.6,1,1.4,1.9,1.7,3c0.2,0.2,0.2,0.4-0.1,0.6C394.6,508.4,393.5,507.5,393.7,505.9z"/>
<path class="st3" d="M303.9,459.7c-0.6,1.2-1.4,2.3-2.7,2.9C301.7,461.3,302.7,460.4,303.9,459.7z"/>
<path class="st33" d="M348.7,247.9c-0.8-0.6-1-1.4-1.2-2.2c-0.2-0.6-0.9-1-0.4-1.7C348.2,245,348.6,246.4,348.7,247.9z"/>
<path class="st4" d="M296.1,316.7c-0.9-1.3-1.4-2.7-1.3-4.3C295.5,313.8,296.4,315.1,296.1,316.7z"/>
<path class="st33" d="M346.7,243.5c-0.4-1.4-1.2-2.7-0.9-4.3c0.3,1.5,1.6,2.7,1.3,4.3C346.9,243.7,346.7,243.7,346.7,243.5z"/>
<path class="st15" d="M310.6,265.3c-0.1,1.6-0.2,3.2-0.8,4.8C309.8,268.4,309.6,266.7,310.6,265.3z"/>
<path class="st34" d="M471.6,382.3c-1.2-0.7-1.9-1.9-2.6-3C470.4,379.8,471.2,380.9,471.6,382.3z"/>
<path class="st35" d="M340.2,535.1c1.2,0.4,1.8,1.4,2.2,2.5C341.2,537.2,340.6,536.2,340.2,535.1z"/>
<path class="st36" d="M351.9,553.8c0,0.3-0.1,0.6-0.1,0.9c-0.3-1.3-1.4-2.4-1.3-3.9C351.3,551.7,351.7,552.7,351.9,553.8z"/>
<path class="st37" d="M353,558.6c1.6,0.8,0.7,2.2,0.9,3.4C353.3,561,353,559.8,353,558.6z"/>
<path class="st38" d="M316.2,301.3c1.2,0.8,1.5,2.1,1.8,3.4C316.7,303.9,316.7,302.5,316.2,301.3z"/>
<path class="st39" d="M369.8,396.4c-0.9-0.6-1.8-1.3-2.6-2.2C368.7,394.1,369.4,395,369.8,396.4z"/>
<path class="st40" d="M344.9,235.8c0-0.2,0.1-0.4,0.1-0.6c1.2,1,0.7,2.4,0.7,3.6C345.3,237.9,345,236.9,344.9,235.8z"/>
<path class="st41" d="M380.4,216.5c0-0.3,0-0.6,0-0.9c0.2-1.1,0.8-2,1.3-3C382.1,214.2,380.9,215.2,380.4,216.5z"/>
<path class="st21" d="M297.8,320.1c-0.8-1-1.8-2-1.7-3.4C296.9,317.8,297.9,318.7,297.8,320.1z"/>
<path class="st42" d="M424.1,280.8c1.1,0.5,1.8,1.4,2.2,2.5C425.1,282.9,424.6,281.9,424.1,280.8z"/>
<path class="st14" d="M452.4,447.6c1.1,0.9,1.3,2.1,1.3,3.5c-0.6-0.9-0.9-1.9-1.4-2.9C452.2,448,452.2,447.8,452.4,447.6z"/>
<path class="st43" d="M399.7,517.9c0.4,1.2,1.4,2.1,1.3,3.5c-0.1,0.2-0.3,0.2-0.4-0.1C400.1,520.2,399.4,519.2,399.7,517.9z"/>
<path class="st44" d="M357.7,265.4c-1.1-0.8-1.6-1.9-2.1-3C356.9,263,357.4,264.1,357.7,265.4z"/>
<path class="st45" d="M306.9,416c1.2,0.4,1.8,1.3,2.5,2.2C308.1,417.9,307.4,417.1,306.9,416z"/>
<path class="st46" d="M319.2,307.7c1.2,0.4,1.3,1.6,1.7,2.5C319.8,309.8,319.5,308.8,319.2,307.7z"/>
<path class="st13" d="M326.5,483.7c-1-0.6-1.8-1.3-1.8-2.6C325.5,481.9,326.4,482.5,326.5,483.7z"/>
<path class="st47" d="M392.1,502.9c1,0.5,1.6,1.2,1.6,2.3c-0.7-0.2-1.1-0.7-1.3-1.3C392.3,503.5,391.7,503.4,392.1,502.9z"/>
<path class="st48" d="M335.1,529.1c0.9,0.4,1.8,0.9,1.8,2.1C336,530.7,335.3,530.1,335.1,529.1z"/>
<path class="st32" d="M395.4,509.5c0-0.2,0.1-0.4,0.1-0.6c0.5,1,1.4,1.8,1.3,3C396.1,511.2,395.4,510.5,395.4,509.5z"/>
<path class="st49" d="M270.1,310.3c-0.3,0.9-0.7,1.8-1.7,2.1C268.5,311.4,269.1,310.7,270.1,310.3z"/>
<path class="st25" d="M294.8,312.4c-0.3-0.2-0.3-0.6-0.4-0.9c-0.4-0.7-1-1.3-0.4-2.2C295.3,310.1,294.8,311.4,294.8,312.4z"/>
<path class="st50" d="M378.9,292.2c-0.7-0.7-1.6-1.4-1.9-2.4C378,290.3,378.8,291,378.9,292.2z"/>
<path class="st51" d="M400.6,521.3c0.1,0,0.2,0,0.4,0.1c0.4,0.8,1,1.5,1,2.5c-0.1,0-0.3,0-0.4,0C401.4,523,400.3,522.4,400.6,521.3z
	"/>
<path class="st52" d="M354.8,567.6c0.6,0.3,0.4,1.5,1.4,1.3c-0.1,0.4-0.3,0.8-0.9,0.7c-0.4-0.1-0.5-0.5-0.5-0.8
	C354.7,568.4,354.8,568,354.8,567.6z"/>
<path class="st53" d="M480.6,396.3c-0.4-0.7-1.3-1.2-1.2-2.3C480.5,394.5,480.6,395.4,480.6,396.3z"/>
<path class="st30" d="M294,309.4c-0.3,0.8,0.5,1.4,0.4,2.2c-1.4-0.7-0.8-2-0.8-3c0.1,0,0.2,0.1,0.3,0.1
	C294,308.9,294,309.1,294,309.4z"/>
<path class="st54" d="M372.7,478.5c0.8,0.6,1.7,1,1.7,2.2C373.7,480.1,372.8,479.7,372.7,478.5z"/>
<path class="st55" d="M452.4,447.6c0,0.2,0,0.4-0.1,0.5c-0.9-0.5-0.9-1.3-0.8-2.2C452,446.4,452.3,447,452.4,447.6z"/>
<path class="st56" d="M392.1,502.9c0.1,0.3,0.2,0.6,0.3,0.9c-1-0.2-1-1-1.3-1.7C391.8,501.9,391.9,502.5,392.1,502.9z"/>
<path class="st57" d="M367.7,535c-1.2-0.4-0.9-1.3-0.9-2.2C367.3,533.5,367.7,534.1,367.7,535z"/>
<path class="st58" d="M314.1,251.6c0.1,0.9,0.3,1.8-0.9,2.2C313.2,252.9,313.6,252.2,314.1,251.6z"/>
<path class="st21" d="M345.8,374.9c-0.7-0.4-1.3-1-1.8-1.7C345.1,373.3,345.7,373.8,345.8,374.9z"/>
<path class="st59" d="M432.7,523.9c-0.1-0.9-0.2-1.8,0.9-2.2C433.8,522.7,433.1,523.3,432.7,523.9z"/>
<path class="st60" d="M352.6,458.8c0.9,0,1.3,0.7,1.7,1.3C353.5,460.1,352.9,459.6,352.6,458.8z"/>
<path class="st61" d="M449.4,299.2c0-0.7-0.4-1.6,0.8-1.8C450.5,298.2,449.8,298.6,449.4,299.2z"/>
<path class="st62" d="M284.1,296.6c0,0.9-0.8,0.9-1.3,1.3C282.9,297,283.3,296.6,284.1,296.6z"/>
<path class="st63" d="M435.3,470.4c-0.9-0.3-1-0.9-0.9-1.7C435.1,469,435.4,469.6,435.3,470.4z"/>
<path class="st44" d="M355.6,262.4c-1-0.2-0.8-1-0.8-1.8C355.3,261.1,355.6,261.6,355.6,262.4z"/>
<path class="st64" d="M346.7,243.5c0.1,0,0.2,0,0.4,0.1c0,0.1,0,0.2,0.1,0.4c-0.1,0.6,0.6,1.1,0.4,1.7
	C346.5,245.2,346.6,244.3,346.7,243.5z"/>
<path class="st65" d="M344,230.7c-0.2,1.3,0.7,2.5,0.5,3.8c-1.2-1.1-0.8-2.5-0.8-3.9C343.8,230.6,343.9,230.7,344,230.7z"/>
<path class="st66" d="M311.9,286.4c-0.5-0.8-0.8-1.7-0.7-2.7C312.3,284.4,312,285.4,311.9,286.4z"/>
<path class="st2" d="M411.9,540.9c-0.5-3.4-1-6.6-1.4-9.9c-0.1-0.6-0.3-1.1-0.5-1.6c-0.5-1.5-1.4-2.9-1.3-4.7
	c0.1-1.3-0.9-2.2-1.4-3.3c-1.3-2.6-2.2-5.3-3.7-7.8c-1.4-2.4-2.8-4.8-4.2-7.3c-1.4-2.5-2.8-5.1-4.6-7.5c-1.3-1.7-2.4-3.6-3.6-5.5
	c-1.8-2.9-4-5.6-5.9-8.4c-1.2-1.8-2.5-3.6-3.9-5.2c-1.4-1.7-2.8-3.5-4.3-5.1c-1.5-1.5-3-3.1-4.3-4.9c-1.1-1.6-2.7-2.9-4.1-4.3
	c-2.7-2.6-5.2-5.4-8-7.8c-1.6-1.4-3-2.9-4.7-4.2c-1.5-1.1-3.1-2.3-4.3-3.8c-1-1.3-2.5-2.2-3.7-3.3c-4.7-4.3-9.5-8.5-14.3-12.7
	c-3-2.6-5.5-5.7-8.5-8.2c-3-2.5-5.6-5.4-8.3-8.1c-1.4-1.4-2.9-2.8-4.3-4.3c-1.3-1.4-2.6-2.9-4.2-4.1c-1.5-1.2-2.7-2.8-4.2-4.1
	c-1.8-1.7-3.4-3.6-5.1-5.4c-3.2-3.5-6.3-7.1-9.5-10.6c-1.5-1.8-3.2-3.4-4.7-5.2c-2.8-3.4-5.6-6.8-8.3-10.2c-1.8-2.3-3.5-4.6-5.2-6.9
	c-2.1-2.9-3.5-6.2-4.7-9.6c-1.1-3.2-1.9-6.4-1.7-9.8c0.1-2.7-0.1-5.4,0-8.1c0.2-4.5,1.2-8.9,2.5-13.3c1.7-5.2,4.8-9.3,9-12.8
	c2.7-2.2,3.9-2.2,6.7-0.2c1.6,1.1,3.1,2.1,4.4,3.5c1.6,1.8,3.1,3.5,4.4,5.6c1.4,2.2,2.8,4.4,4.4,6.5c1.6,2.1,2.8,4.5,4.4,6.7
	c0.6,0.8,1.2,1.5,1.8,2.3c1.3,1.9,3.1,3.5,4.3,5.6c0.1,0.2,0.3,0.5,0.5,0.7c3.4,4.1,7.1,7.9,10.8,11.7c1.3,1.4,2.7,2.8,4,4.3
	c1.3,1.6,2.9,2.9,4.3,4.4c1.6,1.6,3.1,3.3,4.8,4.7c2.8,2.4,5,5.5,7.7,8c1.5,1.4,3,2.9,4.4,4.5c2.2,2.5,4.7,4.6,7.2,6.8
	c1.5,1.4,2.9,2.8,4.5,4.2c3.3,2.8,6.7,5.4,9.9,8.3c1.9,1.7,4,3.1,5.8,4.8c2.1,1.9,4.4,3.7,6.6,5.6c5.3,4.5,10,9.6,14.7,14.7
	c2.4,2.6,4.7,5.2,7,7.9c1.4,1.6,3.1,3,4.2,4.9c0.7,1.3,2,2.3,3,3.4c3,3.1,5.4,6.5,8.3,9.7c1.8,2,3.2,4.2,5.1,6.2
	c1.6,1.6,2.6,3.8,3.9,5.8c2.8,4.5,4.8,9.4,5.9,14.5c1.4,6.9,2.5,13.8,1.9,20.9c-0.3,3.1-1,6.1-1.4,9.2c-0.5,3.5-1.9,6.6-2.9,9.9
	c-1.7,5.6-4.9,10.5-7.7,15.5c-0.9,1.7-2.1,3.4-3.6,4.6c-0.6,0.5-0.8,1.1-1.2,1.7C414,540.7,413.2,541.1,411.9,540.9z"/>
<path class="st67" d="M260.2,332.6c-0.1-1,0.3-1.8,0.7-2.7C260.8,330.8,261.7,332,260.2,332.6z"/>
<path class="st68" d="M261,351.9c-0.6-0.8-0.9-1.7-0.8-2.7C261.4,349.8,261,350.9,261,351.9z"/>
<path class="st69" d="M368.4,544.9c0.1,0.9-0.1,1.6-0.7,2.2C367.5,546.2,367.9,545.5,368.4,544.9z"/>
</svg>
